<?xml version="1.0" encoding="UTF-8"?>
<svg width="576px" height="576px" viewBox="0 0 576 576" version="1.1" xmlns="http://www.w3.org/2000/svg" xmlns:xlink="http://www.w3.org/1999/xlink">
  <path d="M318,175.5 L318,48 L130.5,48 C118.03125,48 108,58.03125 108,70.5 L108,505.5 C108,517.96875 118.03125,528 130.5,528 L445.5,528 C457.96875,528 468,517.96875 468,505.5 L468,198 L340.5,198 C328.125,198 318,187.875 318,175.5 Z M468,162.28125 L468,168 L348,168 L348,48 L353.71875,48 C359.71875,48 365.4375,50.34375 369.65625,54.5625 L461.4375,146.4375 C465.65625,150.65625 468,156.375 468,162.28125 Z" fill="#ffffff" fill-opacity="0.5"></path>
</svg>