<?xml version="1.0" encoding="UTF-8"?>
<svg width="576px" height="576px" viewBox="0 0 576 576" version="1.1" xmlns="http://www.w3.org/2000/svg" xmlns:xlink="http://www.w3.org/1999/xlink">
  <path d="M572.694,324.093 L500.27,448.248 C488.801075,467.910023 467.7515,480.000363 444.989,480 L45.025,480 C26.502,480 14.961,459.907 24.294,443.907 L96.718,319.752 C108.187552,300.090118 129.237306,287.999894 152,288 L551.964,288 C570.487,288 582.028,308.093 572.694,324.093 Z M152,256 L480,256 L480,208 C480,181.49 458.51,160 432,160 L272,160 L208,96 L48,96 C21.49,96 0,117.49 0,144 L0,422.046 L69.077,303.628 C86.214,274.25 117.989,256 152,256 Z" fill="#000000" fill-opacity="0.75"></path>
</svg>